<svg width="24" height="24" viewBox="0 0 113 113" fill="none" xmlns="http://www.w3.org/2000/svg">
<path d="M92.8499 57.1003C92.4923 56.8928 92.0995 56.6942 91.6934 56.5C92.0995 56.3058 92.4923 56.1071 92.8499 55.8997C94.8741 54.7488 96.6507 53.2089 98.0773 51.3686C99.504 49.5283 100.553 47.4241 101.163 45.1769C101.773 42.9297 101.932 40.5841 101.632 38.275C101.332 35.9659 100.578 33.739 99.4138 31.7225C98.2495 29.7059 96.6979 27.9396 94.8482 26.5252C92.9985 25.1108 90.8873 24.0762 88.6361 23.481C86.385 22.8859 84.0383 22.7419 81.7313 23.0573C79.4242 23.3727 77.2024 24.1414 75.1936 25.319C74.8361 25.5265 74.4653 25.7604 74.0989 26.0209C74.1342 25.5795 74.1563 25.1381 74.1563 24.6967C74.1563 20.0139 72.2961 15.523 68.9849 12.2118C65.6737 8.90061 61.1828 7.04041 56.5001 7.04041C51.8173 7.04041 47.3264 8.90061 44.0152 12.2118C40.704 15.523 38.8438 20.0139 38.8438 24.6967C38.8438 25.1116 38.8438 25.553 38.9012 26.0209C38.5348 25.7693 38.164 25.5265 37.8065 25.319C35.7977 24.1414 33.5759 23.3727 31.2688 23.0573C28.9618 22.7419 26.6151 22.8859 24.364 23.481C22.1128 24.0762 20.0016 25.1108 18.1519 26.5252C16.3022 27.9396 14.7506 29.7059 13.5863 31.7225C12.422 33.739 11.6681 35.9659 11.368 38.275C11.0679 40.5841 11.2274 42.9297 11.8375 45.1769C12.4476 47.4241 13.4962 49.5283 14.9228 51.3686C16.3495 53.2089 18.126 54.7488 20.1503 55.8997C20.5078 56.1071 20.9006 56.3058 21.3067 56.5C20.9006 56.6942 20.5078 56.8928 20.1503 57.1003C18.126 58.2512 16.3495 59.7911 14.9228 61.6313C13.4962 63.4716 12.4476 65.5759 11.8375 67.8231C11.2274 70.0702 11.0679 72.4159 11.368 74.725C11.6681 77.034 12.422 79.2609 13.5863 81.2775C14.7506 83.294 16.3022 85.0603 18.1519 86.4747C20.0016 87.8892 22.1128 88.9237 24.364 89.5189C26.6151 90.1141 28.9618 90.2581 31.2688 89.9426C33.5759 89.6272 35.7977 88.8585 37.8065 87.6809C38.164 87.4735 38.5348 87.2395 38.9012 86.9791C38.8659 87.4205 38.8438 87.8619 38.8438 88.2812C38.8438 92.964 40.704 97.4549 44.0152 100.766C47.3264 104.077 51.8173 105.937 56.5001 105.937C61.1828 105.937 65.6737 104.077 68.9849 100.766C72.2961 97.4549 74.1563 92.964 74.1563 88.2812C74.1563 87.8663 74.1342 87.4249 74.0989 86.9791C74.4653 87.2307 74.8361 87.4735 75.1936 87.6809C77.8682 89.2303 80.9043 90.0464 83.9953 90.0469C85.5484 90.0448 87.0946 89.84 88.5947 89.4377C91.9678 88.5336 94.9971 86.6496 97.2994 84.0238C99.6018 81.3981 101.074 78.1486 101.529 74.6862C101.985 71.2239 101.403 67.7042 99.8583 64.5724C98.3134 61.4405 95.8744 58.8371 92.8499 57.0915V57.1003ZM56.5001 68.8594C54.0556 68.8594 51.666 68.1345 49.6336 66.7764C47.6011 65.4184 46.0169 63.4881 45.0815 61.2297C44.146 58.9713 43.9013 56.4863 44.3782 54.0888C44.8551 51.6913 46.0322 49.4891 47.7607 47.7606C49.4892 46.0321 51.6914 44.855 54.0889 44.3781C56.4864 43.9012 58.9714 44.146 61.2298 45.0814C63.4882 46.0169 65.4184 47.601 66.7765 49.6335C68.1346 51.666 68.8594 54.0555 68.8594 56.5C68.8594 59.7779 67.5573 62.9215 65.2395 65.2394C62.9216 67.5572 59.778 68.8594 56.5001 68.8594Z" fill="white"/>
</svg>
