<svg width="511" height="487" viewBox="0 0 511 487" fill="none" xmlns="http://www.w3.org/2000/svg">
<path d="M50.5 128.5C50.5 189.983 171.167 209.796 209.5 219.13C226.3 229.13 208 236.833 201 238L102.5 219.13C49.5003 212.5 -26.8992 240.8 15.5004 348C44.1754 420.5 96.3183 390.841 140.012 353.13C175.5 322.5 170.012 362.13 163.012 365.63C156.012 369.13 120.5 445 209.5 447.5C298.5 450 265.5 384 249.512 313.63C243.058 285.224 265.678 273.167 272.512 287.5C274.845 302.833 291.5 331.999 307.512 348C321.676 362.155 346.5 389.5 425.5 370C504.5 350.5 442.012 268.63 446.012 251.63C450.012 234.63 498.489 214.5 506.5 188C514.814 160.5 463.5 59 379.5 123.5C295.5 188 315.512 201.63 272.512 206.63C229.512 211.63 275.012 168.13 280.512 161.63C286.012 155.13 326.989 140 333.5 118.63C345.888 77.9751 322.512 41.6298 298.012 18.6297C273.512 -4.37044 218.489 -2.50003 201 35.6298C181.489 58.9999 188.039 130.257 147 71.6299C126 41.6297 78.0117 47.5 85 89C81.6667 90.5 50.5 69.5 50.5 128.5Z" stroke="#01F891" stroke-width="6"/>
<path d="M252 293C280 345.667 330 457.7 306 484.5" stroke="#01F891" stroke-width="6"/>
</svg>
