<svg width="704" height="626" viewBox="0 0 704 626" fill="none" xmlns="http://www.w3.org/2000/svg">
<path d="M1 131.963C55.6667 130.796 176.4 159.263 222 282.463C279 436.463 256.5 382.5 280 466M280 466C303.5 549.5 318.5 660.963 272 607.463C225.5 553.963 165 171.963 349 131.963C423 131.963 476.8 13.5001 576 77.5001C675.2 141.5 601.333 305.463 560 365.463C584.5 376.13 631.3 408.863 622.5 454.463C611.5 511.463 654.5 564.463 550 580.963C534 573.963 495.9 562.063 471.5 570.463C441 580.963 370 601.963 359.5 537.463C351.1 485.863 280 433.5 280 466Z" stroke="#D553FC" stroke-width="8"/>
<path d="M353 517.001C356.5 497.667 356.3 453.601 327.5 432.001C291.5 405.001 268.71 310.276 256 278.501C244 248.501 179.5 214 256 104.5C339.247 -14.6572 471.383 35.2448 504 20.5003C613.5 -28.9998 700.5 39.4998 700.5 104.5C700.5 216.558 674.5 248.501 636 294.501C624 305.501 577.5 365.501 618 347.501C642.588 336.573 671 368.5 676.5 407.5C682 446.5 651 461 660 479.5C669 498 685 542.5 600 565" stroke="#D553FC" stroke-width="6"/>
</svg>
