<svg width="199" height="130" viewBox="0 0 199 130" fill="none" xmlns="http://www.w3.org/2000/svg">
<path d="M16.8863 18.3489L17.8782 11.5688L27.7964 13.7212C44.7944 17.5662 62.946 18.7461 80.7762 17.165C99.5121 15.2721 118.689 16.9542 135.988 22.0079C145.158 24.5501 153.206 28.5454 159.399 33.6298C165.592 38.7143 169.733 44.7264 171.445 51.119C173.665 59.3771 172.555 67.869 168.222 75.7638C165.432 71.664 162.172 67.7068 158.469 63.9257C150.07 55.8803 138.432 49.4949 124.83 45.469C111.726 41.5738 97.4025 39.7309 83.0078 40.088C96.7112 41.4521 109.828 44.659 121.523 49.5047C127.165 51.8123 132.331 54.5789 136.897 57.7376C141.263 60.8947 145.114 64.3392 148.385 68.0152C154.53 75.6993 158.903 83.9309 161.362 92.4449C164.012 100.986 151.105 74.5597 148.253 75.5287C148.567 81.9448 147.476 67.7146 148.253 75.5287C136.054 78.1766 124.728 79.0067 111.697 78.8921C99.5428 78.8867 87.5141 77.2948 76.3216 74.2107C14.1518 52.8822 16.8863 20.7703 16.8863 18.3489Z" fill="#01F891"/>
</svg>
