<svg width="197" height="133" viewBox="0 0 197 133" fill="none" xmlns="http://www.w3.org/2000/svg">
<path d="M180.083 24.7952L179.38 18.2002L169.706 19.9066C153.12 22.982 135.52 23.4362 118.335 21.2323C100.286 18.6924 81.6743 19.5935 64.7524 23.8267C55.7868 25.9384 47.8518 29.4979 41.6697 34.1811C35.4877 38.8643 31.255 44.5224 29.357 50.6403C26.8971 58.5433 27.65 66.7986 31.5419 74.5982C34.3954 70.7386 37.6983 67.0346 41.4227 63.5178C49.8506 56.0543 61.3482 50.3189 74.6563 46.9399C87.4775 43.6686 101.4 42.4283 115.309 43.3184C102.004 44.119 89.1958 46.7243 77.7011 50.9683C72.1577 52.9867 67.0565 55.467 62.5209 58.3492C58.178 61.2374 54.3237 64.4231 51.0204 67.8547C44.7864 75.054 40.246 82.8499 37.5455 90.9913C34.6587 99.1521 48.1422 74.0814 50.8639 75.1265C50.3173 81.3202 51.911 67.5983 50.8639 75.1265C62.5628 78.1492 73.4854 79.3807 86.0933 79.763C97.8483 80.2178 109.542 79.1334 120.484 76.574C181.421 58.2985 179.991 27.1372 180.083 24.7952Z" fill="#01F891"/>
</svg>
