<svg width="354" height="362" viewBox="0 0 354 362" fill="none" xmlns="http://www.w3.org/2000/svg">
<path d="M326.083 94.7952L325.38 88.2002L315.706 89.9066C299.12 92.982 281.52 93.4362 264.335 91.2323C246.286 88.6924 227.674 89.5935 210.752 93.8267C201.787 95.9384 193.852 99.4979 187.67 104.181C181.488 108.864 177.255 114.522 175.357 120.64C172.897 128.543 173.65 136.799 177.542 144.598C180.395 140.739 183.698 137.035 187.423 133.518C195.851 126.054 207.348 120.319 220.656 116.94C233.478 113.669 247.4 112.428 261.309 113.318C248.004 114.119 235.196 116.724 223.701 120.968C218.158 122.987 213.057 125.467 208.521 128.349C204.178 131.237 200.324 134.423 197.02 137.855C190.786 145.054 186.246 152.85 183.545 160.991C180.659 169.152 194.142 144.081 196.864 145.127C196.317 151.32 197.911 137.598 196.864 145.127C208.563 148.149 219.485 149.381 232.093 149.763C243.848 150.218 255.542 149.133 266.484 146.574C327.421 128.298 325.991 97.1372 326.083 94.7952Z" fill="#01F891"/>
<path d="M17.8863 106.349L18.8782 99.5688L28.7964 101.721C45.7944 105.566 63.946 106.746 81.7762 105.165C100.512 103.272 119.689 104.954 136.988 110.008C146.158 112.55 154.206 116.545 160.399 121.63C166.592 126.714 170.733 132.726 172.445 139.119C174.665 147.377 173.555 155.869 169.222 163.764C166.432 159.664 163.172 155.707 159.469 151.926C151.07 143.88 139.432 137.495 125.83 133.469C112.726 129.574 98.4025 127.731 84.0078 128.088C97.7112 129.452 110.828 132.659 122.523 137.505C128.165 139.812 133.331 142.579 137.897 145.738C142.263 148.895 146.114 152.339 149.385 156.015C155.53 163.699 159.903 171.931 162.362 180.445C165.012 188.986 152.105 162.56 149.253 163.529C149.567 169.945 148.476 155.715 149.253 163.529C137.054 166.177 125.728 167.007 112.697 166.892C100.543 166.887 88.5141 165.295 77.3216 162.211C15.1518 140.882 17.8863 108.77 17.8863 106.349Z" fill="#01F891"/>
<path d="M161.5 320.728V129H189.5L193.5 320.728C193.5 341.107 209.167 348.593 218.5 349.841H238V354H116V349.841H133C156.6 347.845 161.833 329.601 161.5 320.728Z" fill="#01F891"/>
</svg>
